# xmcd
#
# Track frame offsets:
#       150
#       20550
#       38250
#       56777
#       77143
#       97233
#       117033
#       134058
#
# Disc length: 2058 seconds
#
# Revision: 0
# Processed by: cddbd v1.4PL0 Copyright (c) Steve Scherf et al.
# Submitted via: CD-DA_X-Tractor v0.24
#
DISCID=68080808
DTITLE=Street Fair Hobblers, The - On Parade
DYEAR=2003
DGENRE=dixieland
TTITLE0=Just A Closer Walk With Thee
TTITLE1=When You're Smiling
TTITLE2=Bourbon Street Parade
TTITLE3=Bei Mir Bist Du Schein
TTITLE4=Nobody Knows The Trouble I've Seen
TTITLE5=John Brown's Body
TTITLE6=The World Is Waiting
TTITLE7=Second Line
EXTD=
EXTT0=
EXTT1=
EXTT2=
EXTT3=
EXTT4=
EXTT5=
EXTT6=
EXTT7=
PLAYORDER=
